<?xml version="1.0" encoding="iso-8859-1"?>
<!-- Generator: Adobe Illustrator 19.0.0, SVG Export Plug-In . SVG Version: 6.00 Build 0)  -->
<svg version="1.1" id="Capa_1" xmlns="http://www.w3.org/2000/svg" xmlns:xlink="http://www.w3.org/1999/xlink" x="0px" y="0px"
	 viewBox="0 0 512 512" style="enable-background:new 0 0 512 512;" xml:space="preserve">
<path style="fill:#3D9AE2;" d="M503.496,245.102v38.586c0,13.109-1.299,26.076-3.825,38.759c-2.658,13.352-7.62,27.03-14.479,40.575
	h-0.01c-35.461,70.08-121.562,136.639-200.632,136.639H223.45c-83.554,0-179.507-75.011-210.91-149.048
	c-3.592-8.472-6.341-16.934-8.127-25.274C1.502,311.732,0,297.791,0,283.688v-38.586H503.496z"/>
<path style="fill:#5AAAE7;" d="M39.57,245.102v38.586c0,14.103,1.502,28.044,4.414,41.65c1.786,8.34,4.535,16.802,8.127,25.274
	c5.915,13.941,14.113,27.912,24.087,41.417c43.01,58.209,119.005,107.631,186.823,107.631h21.53
	c79.07,0,165.17-66.559,200.632-136.639h0.01c6.859-13.545,11.82-27.222,14.479-40.575c2.526-12.683,3.825-25.65,3.825-38.759
	v-38.586H39.57z"/>
<path style="fill:#C2DFF6;" d="M503.496,245.102c0,6.575-1.268,13.018-3.703,19.278c-11.415,29.465-48.54,54.982-100.691,71.815
	c-11.79,3.805-24.361,7.173-37.572,10.024c-13.251,2.871-27.151,5.235-41.569,7.052c-21.693,2.709-44.572,4.16-68.213,4.16
	c-58.006,0-111.416-8.746-153.979-23.448c-14.783-5.114-28.267-10.938-40.169-17.37c-13.007-7.021-24.148-14.763-33.046-23.062
	c-9.771-9.101-16.873-18.882-20.861-29.15C1.268,258.13,0,251.687,0,245.102c0-62.034,112.714-112.329,251.748-112.329
	S503.496,183.068,503.496,245.102z"/>
<path style="fill:#B3D8F4;" d="M485.182,363.021c-35.461,70.08-121.562,136.639-200.632,136.639H223.45
	c-83.554,0-179.507-75.011-210.91-149.048c16.917,11.835,30.341,30.782,85.228,49.767
	C212.953,440.194,383.432,430.567,485.182,363.021z"/>
<g>
	<path style="fill:#EE8700;" d="M208.11,53.937c-3.897,0-7.218-2.979-7.57-6.935c-0.373-4.186,2.718-7.883,6.905-8.255l296.27-26.38
		c4.181-0.351,7.883,2.72,8.255,6.906c0.372,4.186-2.719,7.883-6.906,8.255l-296.27,26.38
		C208.565,53.927,208.337,53.937,208.11,53.937z"/>
	<path style="fill:#EE8700;" d="M504.398,104.668c-0.226,0-0.454-0.01-0.684-0.029l-296.27-26.38
		c-4.186-0.372-7.278-4.069-6.905-8.255c0.372-4.186,4.07-7.261,8.254-6.906l296.27,26.38c4.186,0.372,7.278,4.069,6.906,8.255
		C511.616,101.69,508.296,104.668,504.398,104.668z"/>
</g>
<g>
	<path style="fill:#FFA733;" d="M232.47,117.52c-4.203,0-7.61-3.406-7.61-7.61V31.446c0-4.204,3.407-7.61,7.61-7.61
		c4.203,0,7.61,3.406,7.61,7.61v78.465C240.08,114.114,236.673,117.52,232.47,117.52z"/>
	<path style="fill:#FFA733;" d="M255.808,100.102c-4.203,0-7.61-3.406-7.61-7.61V31.446c0-4.204,3.407-7.61,7.61-7.61
		c4.204,0,7.61,3.406,7.61,7.61v61.047C263.417,96.696,260.011,100.102,255.808,100.102z"/>
</g>
<path style="fill:#96C8EF;" d="M76.198,392.029c-6.554-2.851-12.764-5.854-18.598-9.01c-13.007-7.021-24.148-14.763-33.046-23.062
	c-3.206-2.983-7.386-6.108-12.013-9.345c31.403,74.037,127.355,149.048,210.91,149.048h39.57
	C195.203,499.661,119.208,450.238,76.198,392.029z"/>
<path style="fill:#B3D8F4;" d="M483.092,200.743c-45.212-29.982-121.958-49.706-209.022-49.706
	c-139.034,0-251.748,50.295-251.748,112.329c0,6.585,1.268,13.028,3.693,19.298c3.389,8.736,9.04,17.117,16.66,25.031
	c-6.778-4.495-12.845-9.223-18.121-14.144c-9.771-9.101-16.873-18.882-20.861-29.15C1.268,258.13,0,251.687,0,245.102
	c0-62.034,112.714-112.329,251.748-112.329C355.473,132.773,444.547,160.766,483.092,200.743z"/>
<path style="fill:#FFB655;" d="M499.793,264.38c-17.696,45.68-89.263,71.264-138.263,81.839
	c-146.697,31.786-328.744-6.9-357.837-81.819c20.465-52.862,123.733-93.071,248.055-93.071c5.966,0,11.891,0.091,17.756,0.274
	C385.78,175.215,480.302,214.065,499.793,264.38z"/>
<path style="fill:#FFC477;" d="M499.793,264.38c-11.415,29.465-48.54,54.982-100.691,71.815
	c-11.79,3.805-24.361,7.173-37.572,10.024c-13.251,2.871-27.151,5.235-41.569,7.052c-16.193,2.019-33.046,3.348-50.386,3.876
	c-51.157-1.573-98.094-9.974-136.294-23.164c-14.783-5.114-28.267-10.938-40.169-17.37c-13.007-7.021-24.148-14.763-33.046-23.062
	c-0.097-0.091-0.195-0.182-0.292-0.273c-16.791-15.75-16.454-42.494,0.407-58.169c38.165-35.48,116.862-60.633,209.324-63.504
	C385.78,175.215,480.302,214.065,499.793,264.38z"/>
<g>
	<path style="fill:#FFA733;" d="M200.909,264.753c15.244-1.324,30.774-1.995,46.158-1.995c10.994,0,22.131,0.343,33.1,1.019
		c2.965,0.184,6.155,0.316,9.533,0.455c18.554,0.769,43.967,1.821,54.227,13.14c1.262,1.391,2.046,3.26,2.046,4.876
		c0,1.415-0.609,2.053-0.81,2.264c-0.27,0.282-0.624,0.565-1.057,0.837c-3.551,2.247-4.609,6.948-2.363,10.5
		c1.449,2.289,3.915,3.542,6.439,3.542c1.391,0,2.799-0.382,4.062-1.179c1.485-0.941,2.811-2.018,3.939-3.201
		c3.232-3.391,5.01-7.923,5.01-12.763c0-5.397-2.183-10.9-5.989-15.099c-14.54-16.04-43.632-17.245-64.873-18.123
		c-3.3-0.137-6.415-0.267-9.227-0.439c-11.279-0.696-22.73-1.048-34.036-1.048c-15.822,0-31.795,0.691-47.475,2.052
		c-3.73,0.324-10.82,1.847-20.632,3.955c-21.779,4.679-54.692,11.751-78.507,11.751c-7.078,0-23.541-0.767-23.541-7.874
		c0-1.303,0.32-2.877,0.952-4.68c2.624-7.497,17.627-26.255,100.048-38.479c23.908-3.545,48.185-5.41,72.157-5.542
		c4.203-0.022,7.591-3.449,7.567-7.651c-0.022-4.188-3.425-7.568-7.609-7.568c-0.014,0-0.028,0-0.043,0
		c-24.689,0.136-49.689,2.056-74.306,5.706c-67.569,10.02-104.264,25.887-112.181,48.505c-1.198,3.423-1.806,6.69-1.806,9.709
		c0,10.536,6.724,23.094,38.761,23.094c25.432,0,59.297-7.276,81.705-12.09C190.726,266.586,198.127,264.996,200.909,264.753z"/>
	<path style="fill:#FFA733;" d="M353.154,313.387c-32.294,5.468-67.013,8.013-109.262,8.013c-12.404,0-25.976-0.218-41.493-0.667
		c-7.932-0.229-16.135-0.466-23.304-2.656c-6.054-1.849-9.814-5.634-9.814-9.877c0-4.34,4.131-7.923,10.525-9.128
		c13.033-2.455,25.071-3.65,36.802-3.65c10.886,0,22.262,1.026,34.778,3.136c3.199,0.539,6.422,1.107,9.661,1.676
		c16.485,2.9,33.531,5.898,50.697,5.898c2.504-0.001,4.976-0.066,7.347-0.193c4.197-0.225,7.417-3.81,7.192-8.006
		c-0.225-4.197-3.814-7.393-8.006-7.192c-2.103,0.113-4.303,0.17-6.535,0.171c-15.833,0-32.215-2.882-48.057-5.669
		c-3.276-0.576-6.533-1.15-9.768-1.694c-13.362-2.254-25.565-3.348-37.309-3.348c-12.688,0-25.648,1.28-39.621,3.912
		c-15.836,2.984-22.925,14.246-22.925,24.083c0,11.023,8.081,20.614,20.588,24.433c9.128,2.789,18.788,3.067,27.311,3.315
		c15.665,0.453,29.381,0.673,41.933,0.673c43.121,0,78.647-2.615,111.801-8.228c4.144-0.701,6.934-4.63,6.233-8.772
		C361.226,315.478,357.31,312.68,353.154,313.387z"/>
	<path style="fill:#FFA733;" d="M443.466,257.302c-1.02-9.049-6.048-17.773-15.374-26.667
		c-27.723-26.445-71.636-30.124-110.38-33.371c-5.577-0.468-10.845-0.909-16.012-1.412c-4.636-0.452-9.326-0.816-14.017-1.138
		V31.446c0-4.204-3.406-7.61-7.61-7.61c-4.204,0-7.61,3.406-7.61,7.61v170.457c0,4.204,3.406,7.61,7.61,7.61l20.152,1.487
		c5.268,0.513,10.587,0.958,16.216,1.43c36.236,3.037,77.307,6.477,101.146,29.217c6.541,6.24,10.16,12.08,10.754,17.352
		c0.045,0.393,0.066,0.794,0.066,1.195c0,4.358-2.642,9.502-7.691,10.901c-4.845,1.341-11.308-0.76-16.942-5.328
		c-2.68-2.172-5.136-4.701-7.735-7.377c-3.159-3.251-6.425-6.612-10.374-9.618c-8.652-6.588-20.407-10.751-30.78-14.423
		c-2.305-0.817-4.557-1.613-6.699-2.411c-24.735-9.22-53.512-13.513-90.563-13.513c-15.888,0-31.461,0.718-48.715,1.587
		c-27.683,1.393-59.06,2.973-86.858,13.847c-3.914,1.531-5.846,5.945-4.315,9.859c1.532,3.913,5.948,5.847,9.859,4.314
		c25.492-9.972,54.26-11.42,82.079-12.821c17.044-0.857,32.416-1.568,47.95-1.568c35.178,0,62.266,3.99,85.249,12.554
		c2.218,0.826,4.547,1.652,6.933,2.497c9.32,3.3,19.883,7.039,26.64,12.186c3.045,2.317,5.78,5.134,8.677,8.114
		c2.795,2.877,5.686,5.853,9.069,8.595c4.207,3.41,12.844,9.133,23.415,9.133c2.457,0,4.87-0.323,7.173-0.96
		c11.097-3.077,18.847-13.592,18.847-25.569C443.627,259.23,443.574,258.26,443.466,257.302z"/>
</g>
<g>
</g>
<g>
</g>
<g>
</g>
<g>
</g>
<g>
</g>
<g>
</g>
<g>
</g>
<g>
</g>
<g>
</g>
<g>
</g>
<g>
</g>
<g>
</g>
<g>
</g>
<g>
</g>
<g>
</g>
</svg>
