<?xml version="1.0" encoding="iso-8859-1"?>
<!-- Generator: Adobe Illustrator 19.0.0, SVG Export Plug-In . SVG Version: 6.00 Build 0)  -->
<svg version="1.1" id="Layer_1" xmlns="http://www.w3.org/2000/svg" xmlns:xlink="http://www.w3.org/1999/xlink" x="0px" y="0px"
	 viewBox="0 0 376.043 376.043" style="enable-background:new 0 0 376.043 376.043;" xml:space="preserve">
<g>
	<polygon style="fill:#997443;" points="352.697,271.322 23.346,271.322 17.521,242.819 358.396,242.819 	"/>
	<g>
		<path style="fill:#F2D383;" d="M241.13,219.151c0-60.663-49.176-109.839-109.839-109.839
			c-60.662,0-109.838,49.176-109.838,109.839H241.13z"/>
		<path style="fill:#D9A460;" d="M221.013,219.151h-4.828c0-46.811-38.083-84.894-84.894-84.894s-84.893,38.083-84.893,84.894H41.57
			c0-49.473,40.249-89.722,89.721-89.722S221.013,169.678,221.013,219.151z"/>
		<path style="fill:#D9A460;" d="M192.044,219.151h-4.828c0-30.837-25.088-55.925-55.925-55.925s-55.925,25.088-55.925,55.925
			h-4.828c0-33.499,27.253-60.753,60.753-60.753C164.791,158.398,192.044,185.652,192.044,219.151z"/>
		<path style="fill:#D9A460;" d="M164.686,219.151h-4.828c0-15.752-12.814-28.566-28.566-28.566
			c-15.751,0-28.566,12.814-28.566,28.566h-4.828c0-18.414,14.98-33.394,33.394-33.394S164.686,200.738,164.686,219.151z"/>
	</g>
	<circle style="fill:#E94F3D;" cx="156.268" cy="142.94" r="18.058"/>
	<g>
		<path style="fill:#F2D383;" d="M354.589,219.151c0-60.663-49.176-109.839-109.838-109.839
			c-60.663,0-109.839,49.176-109.839,109.839H354.589z"/>
		<path style="fill:#D9A460;" d="M334.472,219.151h-4.828c0-46.811-38.082-84.894-84.893-84.894s-84.893,38.083-84.893,84.894
			h-4.828c0-49.473,40.249-89.722,89.721-89.722C294.224,129.429,334.472,169.678,334.472,219.151z"/>
		<path style="fill:#D9A460;" d="M305.503,219.151h-4.828c0-30.837-25.088-55.925-55.924-55.925
			c-30.838,0-55.925,25.088-55.925,55.925h-4.827c0-33.499,27.252-60.753,60.753-60.753S305.503,185.652,305.503,219.151z"/>
		<path style="fill:#D9A460;" d="M278.144,219.151h-4.828c0-15.752-12.813-28.566-28.564-28.566
			c-15.752,0-28.564,12.814-28.564,28.566h-4.83c0-18.414,14.982-33.394,33.395-33.394S278.144,200.738,278.144,219.151z"/>
	</g>
	<polygon style="fill:#B3874F;" points="358.074,244.819 17.968,244.819 0,219.151 376.043,219.151 	"/>
	<path style="fill:#F2D383;" d="M207.466,245.62c0,3.74-3.031,6.772-6.771,6.772c-3.74,0-6.771-3.032-6.771-6.772v-29.685
		c0-3.74,3.031-6.772,6.771-6.772c3.74,0,6.771,3.032,6.771,6.772V245.62z"/>
	<circle style="fill:#E94F3D;" cx="36.026" cy="189.982" r="18.058"/>
	<circle style="fill:#E94F3D;" cx="262.809" cy="122.779" r="18.058"/>
	<circle style="fill:#E94F3D;" cx="302.278" cy="203.661" r="18.058"/>
</g>
<g>
</g>
<g>
</g>
<g>
</g>
<g>
</g>
<g>
</g>
<g>
</g>
<g>
</g>
<g>
</g>
<g>
</g>
<g>
</g>
<g>
</g>
<g>
</g>
<g>
</g>
<g>
</g>
<g>
</g>
</svg>
