<?xml version="1.0" encoding="iso-8859-1"?>
<!-- Generator: Adobe Illustrator 19.0.0, SVG Export Plug-In . SVG Version: 6.00 Build 0)  -->
<svg version="1.1" id="Capa_1" xmlns="http://www.w3.org/2000/svg" xmlns:xlink="http://www.w3.org/1999/xlink" x="0px" y="0px"
	 viewBox="0 0 512 512" style="enable-background:new 0 0 512 512;" xml:space="preserve">
<path style="fill:#EBD37A;" d="M511.482,203.676c-1.335-6.166-4.986-11.521-9.998-14.781c-1.539-1.002-3.083-1.979-4.633-2.931
	c-2.593-1.594-3.678-4.791-2.587-7.634c0.651-1.697,1.284-3.41,1.897-5.139c2.011-5.629,1.671-12.073-0.958-17.748
	c-2.624-5.686-7.302-10.102-12.869-12.232c-1.702-0.645-3.393-1.274-5.084-1.882c-2.875-1.034-4.618-3.956-4.123-6.971l0.009-0.055
	c0.291-1.767,0.591-3.561,0.835-5.339c0.878-5.908-0.697-12.104-4.303-17.158c-3.611-5.06-8.969-8.523-14.835-9.613
	c-1.773-0.343-3.553-0.658-5.33-0.956c-3.027-0.507-5.241-3.11-5.254-6.179c-0.007-1.802-0.031-3.61-0.082-5.414
	c-0.125-5.959-2.662-11.787-7.012-16.166c-2.025-2.061-5.059-4.29-8.153-5.485c-1.545-0.628-3.161-1.034-4.735-1.288
	c-1.616-0.196-3.169-0.284-4.732-0.094c-2.073,0.209-4.105,0.538-6.079,0.957c-2.681,0.57-5.434-0.71-6.727-3.127
	c-0.952-1.779-2.012-3.544-3.191-5.249c-1.737-2.585-4.207-4.756-7.159-6.338c-2.947-1.591-6.384-2.487-9.923-2.657
	c-3.545-0.159-7.041,0.544-10.109,1.843c-1.531,0.695-2.965,1.473-4.245,2.469c-0.642,0.488-1.253,0.984-1.82,1.535
	c-0.566,0.56-1.094,1.141-1.582,1.743l-0.873,1.09l-0.832,1.131c-0.545,0.754-1.073,1.497-1.58,2.248l-0.03,0.046
	c-1.623,2.551-4.727,3.746-7.634,2.91c-1.809-0.52-3.674-0.96-5.598-1.338c-3.034-0.55-6.359-0.398-9.539,0.621
	c-1.622,0.463-3.15,1.206-4.676,2.038c-1.463,0.904-2.935,1.898-4.202,3.132c-0.629,0.595-1.302,1.259-1.813,1.858
	c-0.491,0.587-0.955,1.193-1.391,1.814c-0.865,1.249-1.636,2.54-2.241,3.92c-1.232,2.735-1.949,5.66-2.058,8.645
	c-0.08,1.8-0.133,3.606-0.169,5.406c-0.061,3.07-2.318,5.639-5.354,6.097c-1.781,0.268-3.565,0.554-5.345,0.866
	c-5.874,0.992-11.296,4.354-14.987,9.342c-3.698,4.989-5.381,11.152-4.615,17.077c0.21,1.783,0.479,3.584,0.736,5.354l0.007,0.054
	c0.438,3.026-1.362,5.914-4.259,6.893c-1.701,0.575-3.404,1.171-5.118,1.782c-5.589,2.032-10.361,6.329-13.097,11.954
	c-2.749,5.621-3.222,12.051-1.337,17.724c0.557,1.715,1.153,3.424,1.761,5.115l0.032,0.091c1.008,2.852-0.151,6.016-2.762,7.543
	l-0.063,0.036c-1.562,0.901-3.097,1.836-4.637,2.791c-5.084,3.138-8.854,8.403-10.334,14.523c-0.388,1.525-0.574,3.084-0.664,4.624
	l-0.024,0.578l-0.008,0.643c-0.001,0.43,0.007,0.857,0.024,1.283c0.034,0.85,0.093,1.685,0.243,2.515
	c0.489,3.303,1.803,6.356,3.631,8.844c1.268,1.679,2.573,3.265,3.933,4.752c1.847,2.021,2.141,5.038,0.722,7.379
	c-1.043,1.721-2.017,3.528-2.889,5.408c-0.695,1.412-1.124,2.905-1.47,4.494c-0.269,1.565-0.444,3.231-0.339,4.889
	c0.13,3.345,1.077,6.777,2.762,9.894c1.685,3.12,4.005,5.818,6.734,7.769c2.712,1.964,5.749,3.235,8.84,3.661
	c2.059,0.305,4.105,0.49,6.12,0.569c2.729,0.105,5.082,2.007,5.755,4.653c0.498,1.956,1.11,3.919,1.826,5.894
	c1.061,2.928,2.936,5.636,5.421,7.893c0.62,0.565,1.291,1.07,1.982,1.573c0.346,0.248,0.701,0.493,1.061,0.728
	c0.367,0.22,0.74,0.435,1.119,0.643c0.379,0.208,0.764,0.409,1.156,0.603c0.386,0.191,0.807,0.393,1.143,0.531
	c0.713,0.302,1.442,0.575,2.186,0.818c5.963,1.937,12.389,1.515,17.741-1.146c1.639-0.818,3.258-1.641,4.86-2.481
	c2.704-1.418,6.016-0.709,7.905,1.69c1.119,1.422,2.259,2.835,3.42,4.251c3.788,4.62,9.471,7.627,15.681,8.317
	c6.217,0.685,12.415-1.015,17.123-4.698c1.44-1.128,2.861-2.257,4.262-3.399c2.368-1.931,5.759-1.896,8.087,0.082
	c1.377,1.17,2.774,2.328,4.192,3.486c4.627,3.772,10.789,5.6,17.012,5.047c6.228-0.559,11.971-3.445,15.858-7.994
	c1.184-1.351,2.336-2.768,3.476-4.144c0.011-0.013,0.023-0.028,0.034-0.041c1.946-2.35,5.262-2.992,7.933-1.518
	c1.584,0.874,3.187,1.732,4.809,2.585c5.288,2.768,11.704,3.328,17.7,1.525c1.498-0.452,2.944-1.023,4.302-1.751
	c0.681-0.358,1.342-0.744,1.983-1.156c0.322-0.207,0.632-0.415,0.949-0.639c0.347-0.244,0.687-0.493,1.019-0.749
	c2.676-1.995,4.733-4.622,6.053-7.405c0.872-1.918,1.639-3.828,2.295-5.735c0.889-2.587,3.393-4.29,6.126-4.168
	c2.015,0.09,4.072,0.078,6.144-0.062c1.565-0.079,3.095-0.408,4.649-0.877c1.506-0.515,3.045-1.17,4.452-2.06
	c1.448-0.855,2.768-1.935,4.032-3.124c1.215-1.227,2.363-2.572,3.311-4.07c1.916-2.985,3.166-6.315,3.558-9.642
	c0.402-3.325,0.065-6.59-1.055-9.505c-0.636-1.753-1.415-3.471-2.177-5.101c-0.072-0.142-0.144-0.284-0.215-0.425
	c-1.258-2.48-0.761-5.507,1.277-7.399c1.477-1.37,2.906-2.842,4.288-4.411c2.083-2.329,3.53-5.264,4.354-8.522
	C512.16,210.699,512.21,207.141,511.482,203.676z"/>
<path style="fill:#FCF1BA;" d="M421.484,160.66c-1.539-1.002-3.083-1.979-4.633-2.931c-2.593-1.594-3.678-4.791-2.587-7.634
	c0.651-1.697,1.284-3.411,1.897-5.139c2.011-5.629,1.671-12.073-0.958-17.748c-2.624-5.686-7.302-10.102-12.869-12.232
	c-1.702-0.645-3.393-1.274-5.084-1.882c-2.875-1.035-4.618-3.956-4.123-6.972l0.009-0.055c0.291-1.767,0.591-3.561,0.835-5.339
	c0.878-5.908-0.697-12.104-4.303-17.158c-3.611-5.06-8.969-8.523-14.835-9.613c-1.773-0.343-3.553-0.658-5.33-0.956
	c-3.027-0.507-5.241-3.11-5.254-6.179c-0.004-1.037-0.03-2.077-0.047-3.116c-1.716,1.556-4.144,2.175-6.449,1.511
	c-1.809-0.52-3.674-0.96-5.598-1.339c-3.034-0.549-6.359-0.398-9.539,0.621c-1.622,0.463-3.15,1.205-4.676,2.038
	c-1.463,0.905-2.935,1.898-4.202,3.132c-0.629,0.594-1.302,1.259-1.813,1.857c-0.491,0.587-0.955,1.193-1.391,1.814
	c-0.865,1.249-1.636,2.541-2.241,3.921c-1.232,2.735-1.949,5.66-2.058,8.645c-0.08,1.8-0.133,3.606-0.169,5.406
	c-0.061,3.07-2.318,5.639-5.354,6.096c-1.781,0.269-3.565,0.554-5.345,0.866c-5.874,0.991-11.296,4.354-14.987,9.342
	c-3.698,4.989-5.381,11.152-4.615,17.077c0.21,1.783,0.479,3.584,0.736,5.354l0.007,0.053c0.438,3.027-1.362,5.914-4.259,6.893
	c-1.701,0.575-3.404,1.17-5.118,1.782c-5.589,2.032-10.361,6.328-13.097,11.954c-2.749,5.62-3.222,12.051-1.337,17.724
	c0.557,1.715,1.153,3.424,1.761,5.115l0.032,0.091c1.008,2.852-0.151,6.016-2.762,7.543l-0.063,0.037
	c-1.562,0.901-3.097,1.836-4.637,2.79c-5.084,3.138-8.854,8.403-10.334,14.523c-0.388,1.525-0.574,3.084-0.664,4.624l-0.024,0.578
	l-0.008,0.643c-0.001,0.431,0.007,0.857,0.024,1.283c0.034,0.85,0.093,1.685,0.243,2.516c0.489,3.302,1.803,6.356,3.631,8.844
	c1.268,1.679,2.573,3.265,3.933,4.752c1.847,2.021,2.141,5.039,0.722,7.379c-1.043,1.721-2.017,3.528-2.889,5.408
	c-0.695,1.412-1.124,2.905-1.47,4.494c-0.269,1.566-0.444,3.231-0.339,4.889c0.13,3.344,1.077,6.775,2.762,9.894
	c1.685,3.12,4.005,5.82,6.734,7.769c2.712,1.964,5.749,3.234,8.84,3.66c2.059,0.305,4.105,0.49,6.12,0.569
	c2.169,0.083,4.085,1.311,5.124,3.137c1.142-0.607,2.234-1.305,3.253-2.102c1.44-1.127,2.861-2.257,4.262-3.399
	c2.368-1.931,5.759-1.896,8.087,0.082c1.377,1.17,2.774,2.329,4.192,3.486c4.627,3.771,10.789,5.6,17.012,5.047
	c6.228-0.559,11.971-3.445,15.858-7.994c1.184-1.351,2.336-2.768,3.476-4.144c0.011-0.013,0.023-0.028,0.034-0.041
	c1.946-2.349,5.262-2.992,7.933-1.52c1.584,0.874,3.187,1.732,4.809,2.585c5.288,2.768,11.704,3.327,17.7,1.525
	c1.498-0.452,2.944-1.023,4.302-1.751c0.681-0.359,1.342-0.744,1.983-1.156c0.322-0.207,0.632-0.415,0.949-0.639
	c0.347-0.244,0.687-0.493,1.019-0.749c2.676-1.995,4.733-4.622,6.053-7.405c0.872-1.918,1.639-3.828,2.295-5.736
	c0.889-2.587,3.393-4.29,6.126-4.168c2.014,0.09,4.072,0.078,6.144-0.062c1.565-0.079,3.095-0.408,4.649-0.877
	c1.506-0.515,3.045-1.17,4.452-2.06c1.448-0.855,2.768-1.935,4.032-3.124c1.215-1.227,2.363-2.572,3.311-4.07
	c1.916-2.985,3.166-6.315,3.558-9.642c0.402-3.325,0.065-6.59-1.055-9.505c-0.636-1.753-1.415-3.471-2.177-5.101
	c-0.072-0.142-0.144-0.284-0.215-0.425c-1.258-2.48-0.761-5.507,1.277-7.398c1.477-1.37,2.906-2.842,4.288-4.411
	c2.083-2.329,3.53-5.264,4.354-8.522c0.76-3.249,0.812-6.807,0.083-10.272C430.147,169.274,426.496,163.919,421.484,160.66z"/>
<path style="fill:#47423F;" d="M393.289,307.293c-24.468,0-48.577-3.571-71.665-10.613c-2.473-0.755-4.163-3.037-4.163-5.623
	v-86.882c0-3.247,2.632-5.878,5.878-5.878h109.736c3.247,0,5.878,2.632,5.878,5.878v93.955c0,2.874-2.079,5.327-4.914,5.799
	c-13.425,2.232-27.133,3.365-40.742,3.365C393.296,307.293,393.29,307.293,393.289,307.293z"/>
<path style="fill:#5B5751;" d="M398.779,240.911c2.014,0.091,4.072,0.079,6.144-0.062c1.565-0.079,3.095-0.408,4.649-0.877
	c1.506-0.515,3.045-1.17,4.452-2.059c1.448-0.855,2.768-1.935,4.032-3.124c1.215-1.226,2.363-2.572,3.311-4.07
	c1.916-2.986,3.166-6.315,3.558-9.644c0.402-3.325,0.065-6.59-1.055-9.504c-0.636-1.753-1.415-3.471-2.177-5.101
	c-0.072-0.142-0.144-0.284-0.215-0.426c-1.258-2.48-0.761-5.506,1.277-7.398c0.122-0.112,0.237-0.236,0.358-0.35h-99.776
	c-3.247,0-5.878,2.632-5.878,5.878v67.117c2.804,0.789,5.784,1.08,8.78,0.814c6.228-0.559,11.971-3.445,15.858-7.994
	c1.184-1.351,2.336-2.768,3.476-4.144c0.011-0.013,0.023-0.028,0.034-0.041c1.946-2.349,5.262-2.993,7.933-1.52
	c1.584,0.875,3.187,1.732,4.809,2.585c5.288,2.768,11.704,3.327,17.7,1.525c1.498-0.451,2.944-1.023,4.302-1.751
	c0.681-0.359,1.342-0.744,1.983-1.156c0.322-0.207,0.632-0.415,0.949-0.639c0.347-0.244,0.687-0.493,1.019-0.749
	c2.676-1.995,4.733-4.622,6.053-7.406c0.872-1.917,1.639-3.827,2.295-5.736C393.542,242.492,396.047,240.789,398.779,240.911z"/>
<path style="fill:#E2C35A;" d="M491.653,211.237c6.798-2.62,6.833-6.884,0.08-9.503c-6.754-2.62-17.778-2.621-24.576,0
	c-6.797,2.621-6.833,6.884-0.079,9.504C473.831,213.856,484.856,213.857,491.653,211.237z"/>
<g>
	<path style="fill:#EBD37A;" d="M351.607,82.754c-2.861,6.185-2.861,16.283,0,22.509c2.861,6.225,7.515,6.258,10.376,0.073
		s2.861-16.283,0-22.509C359.123,76.602,354.468,76.569,351.607,82.754z"/>
	<path style="fill:#EBD37A;" d="M409.261,175.737c-6.754-2.62-17.778-2.621-24.576,0c-6.797,2.62-6.833,6.884-0.079,9.504
		c6.753,2.62,17.778,2.62,24.575,0C415.979,182.62,416.015,178.357,409.261,175.737z"/>
	<path style="fill:#EBD37A;" d="M289.164,189.478c-6.83-2.55-10.146,0.442-7.394,6.668c2.753,6.226,10.548,13.367,17.377,15.916
		s10.146-0.442,7.394-6.668C303.788,199.168,295.993,192.027,289.164,189.478z"/>
	<path style="fill:#EBD37A;" d="M381.88,122.504c-6.83-2.55-10.146,0.442-7.394,6.668c2.753,6.226,10.548,13.367,17.377,15.916
		c6.829,2.55,10.146-0.442,7.394-6.668C396.504,132.193,388.709,125.053,381.88,122.504z"/>
</g>
<path style="fill:#E2C35A;" d="M385.325,76.326c2.753,6.226,10.548,13.367,17.377,15.916s10.146-0.442,7.394-6.668
	c-2.753-6.226-10.548-13.368-17.377-15.916C385.888,67.108,382.572,70.1,385.325,76.326z"/>
<path style="fill:#EBD37A;" d="M315.526,149.448c-6.798,2.521-14.595,9.661-17.378,15.916c-2.784,6.255,0.483,9.293,7.281,6.771
	c6.798-2.521,14.594-9.661,17.377-15.916C325.59,149.965,322.323,146.928,315.526,149.448z"/>
<g>
	<path style="fill:#E2C35A;" d="M448.843,260.325c-2.55,6.829,0.442,10.146,6.668,7.394c6.226-2.753,13.368-10.548,15.917-17.377
		c2.55-6.829-0.442-10.146-6.669-7.394C458.533,245.7,451.392,253.496,448.843,260.325z"/>
	<path style="fill:#E2C35A;" d="M432.709,145.582c-2.457,6.349-1.993,16.91,1.033,23.543c3.027,6.632,7.487,6.862,9.943,0.513
		s1.993-16.91-1.033-23.542C439.626,139.463,435.165,139.233,432.709,145.582z"/>
</g>
<path style="fill:#EBD37A;" d="M335.78,325.638c-1.754-8.104-6.553-15.142-13.14-19.426c-2.023-1.318-4.053-2.601-6.088-3.852
	c-3.409-2.094-4.834-6.298-3.4-10.033c0.856-2.23,1.687-4.482,2.493-6.754c2.642-7.398,2.195-15.868-1.259-23.326
	c-3.448-7.472-9.597-13.277-16.914-16.077c-2.237-0.847-4.46-1.674-6.682-2.475c-3.78-1.36-6.07-5.199-5.419-9.162l0.011-0.072
	c0.382-2.321,0.778-4.68,1.098-7.019c1.154-7.765-0.917-15.908-5.656-22.551c-4.745-6.651-11.787-11.202-19.497-12.634
	c-2.329-0.451-4.67-0.865-7.006-1.256c-3.979-0.665-6.888-4.088-6.904-8.122c-0.009-2.367-0.041-4.744-0.108-7.114
	c-0.164-7.832-3.5-15.492-9.217-21.246c-2.662-2.708-6.65-5.638-10.715-7.209c-2.03-0.826-4.154-1.36-6.222-1.693
	c-2.125-0.258-4.164-0.373-6.219-0.124c-2.724,0.275-5.395,0.707-7.989,1.258c-3.523,0.749-7.142-0.933-8.842-4.108
	c-1.252-2.337-2.643-4.658-4.195-6.899c-2.283-3.397-5.53-6.251-9.409-8.329c-3.873-2.09-8.391-3.269-13.041-3.491
	c-4.66-0.209-9.254,0.715-13.286,2.422c-2.012,0.914-3.896,1.936-5.579,3.245c-0.844,0.643-1.646,1.293-2.392,2.017
	c-0.744,0.736-1.438,1.501-2.079,2.291l-1.147,1.433l-1.095,1.487c-0.717,0.991-1.411,1.967-2.077,2.955l-0.039,0.062
	c-2.132,3.353-6.214,4.923-10.033,3.825c-2.378-0.684-4.828-1.262-7.358-1.76c-3.987-0.723-8.358-0.522-12.538,0.816
	c-2.131,0.608-4.14,1.585-6.146,2.678c-1.922,1.189-3.857,2.494-5.523,4.116c-0.826,0.782-1.711,1.653-2.383,2.443
	c-0.646,0.772-1.256,1.567-1.828,2.384c-1.138,1.64-2.15,3.34-2.944,5.152c-1.619,3.595-2.562,7.439-2.705,11.362
	c-0.106,2.366-0.175,4.74-0.221,7.106c-0.08,4.034-3.046,7.411-7.037,8.013c-2.341,0.352-4.685,0.728-7.024,1.138
	c-7.721,1.303-14.846,5.722-19.698,12.278c-4.861,6.558-7.072,14.657-6.066,22.446c0.276,2.343,0.63,4.71,0.966,7.037l0.01,0.07
	c0.575,3.978-1.79,7.773-5.597,9.059c-2.237,0.756-4.474,1.539-6.726,2.343c-7.345,2.67-13.617,8.319-17.213,15.711
	c-3.613,7.386-4.235,15.838-1.756,23.294c0.733,2.254,1.515,4.501,2.314,6.723l0.042,0.118c1.325,3.748-0.199,7.908-3.63,9.913
	l-0.082,0.048c-2.052,1.185-4.07,2.413-6.095,3.667C7.814,303.94,2.859,310.86,0.915,318.905c-0.511,2.004-0.755,4.054-0.874,6.077
	l-0.032,0.759L0,326.587c-0.001,0.565,0.009,1.127,0.031,1.685c0.045,1.117,0.123,2.215,0.319,3.305
	c0.644,4.34,2.369,8.355,4.773,11.625c1.667,2.207,3.382,4.291,5.169,6.246c2.427,2.656,2.813,6.622,0.95,9.699
	c-1.371,2.263-2.651,4.637-3.796,7.108c-0.915,1.856-1.477,3.818-1.933,5.906c-0.353,2.057-0.584,4.246-0.445,6.425
	c0.17,4.396,1.414,8.906,3.629,13.004c2.215,4.101,5.264,7.647,8.85,10.21c3.565,2.581,7.556,4.251,11.618,4.811
	c2.706,0.401,5.395,0.645,8.044,0.747c3.587,0.138,6.679,2.637,7.564,6.116c0.653,2.571,1.458,5.151,2.399,7.747
	c1.395,3.848,3.859,7.407,7.125,10.375c0.815,0.742,1.697,1.406,2.604,2.068c0.455,0.327,0.92,0.648,1.395,0.958
	c0.481,0.291,0.971,0.572,1.47,0.845c0.499,0.273,1.004,0.537,1.518,0.792c0.508,0.251,1.06,0.515,1.503,0.697
	c0.937,0.397,1.896,0.755,2.873,1.074c7.837,2.545,16.282,1.991,23.316-1.506c2.154-1.074,4.282-2.157,6.388-3.261
	c3.554-1.864,7.908-0.932,10.389,2.222c1.47,1.869,2.97,3.726,4.495,5.587c4.978,6.073,12.449,10.025,20.61,10.931
	c8.171,0.9,16.316-1.334,22.504-6.175c1.892-1.482,3.76-2.966,5.602-4.467c3.113-2.537,7.569-2.492,10.628,0.108
	c1.81,1.538,3.647,3.061,5.508,4.581c6.081,4.957,14.18,7.361,22.359,6.633c8.186-0.735,15.734-4.529,20.841-10.507
	c1.556-1.776,3.071-3.639,4.569-5.448c0.015-0.019,0.03-0.036,0.045-0.055c2.558-3.087,6.916-3.932,10.426-1.996
	c2.083,1.149,4.189,2.276,6.32,3.397c6.95,3.638,15.383,4.374,23.261,2.005c1.969-0.594,3.87-1.344,5.655-2.302
	c0.894-0.471,1.765-0.978,2.607-1.52c0.423-0.272,0.83-0.546,1.247-0.84c0.456-0.32,0.903-0.649,1.339-0.985
	c3.518-2.623,6.22-6.075,7.956-9.733c1.146-2.521,2.154-5.03,3.016-7.538c1.168-3.4,4.461-5.638,8.052-5.477
	c2.648,0.117,5.352,0.103,8.076-0.081c2.056-0.104,4.067-0.537,6.11-1.152c1.98-0.678,4.002-1.538,5.852-2.707
	c1.903-1.123,3.638-2.542,5.3-4.105c1.596-1.612,3.105-3.381,4.351-5.35c2.519-3.924,4.161-8.3,4.677-12.673
	c0.529-4.371,0.086-8.662-1.387-12.492c-0.835-2.305-1.861-4.562-2.861-6.704c-0.095-0.188-0.189-0.374-0.283-0.559
	c-1.653-3.259-1-7.238,1.679-9.724c1.942-1.801,3.82-3.735,5.635-5.798c2.738-3.062,4.64-6.919,5.722-11.2
	C336.669,334.868,336.737,330.192,335.78,325.638z"/>
<path style="fill:#F3E29A;" d="M217.495,269.102c-2.023-1.317-4.053-2.601-6.088-3.852c-3.409-2.095-4.834-6.298-3.4-10.033
	c0.856-2.23,1.687-4.482,2.493-6.754c2.642-7.398,2.195-15.868-1.259-23.326c-3.448-7.472-9.597-13.277-16.914-16.077
	c-2.237-0.847-4.46-1.674-6.682-2.473c-3.78-1.36-6.07-5.199-5.419-9.163l0.011-0.072c0.382-2.321,0.778-4.68,1.098-7.019
	c1.154-7.766-0.917-15.908-5.656-22.551c-4.745-6.651-11.787-11.202-19.497-12.634c-2.329-0.451-4.67-0.865-7.006-1.257
	c-3.979-0.665-6.888-4.088-6.904-8.121c-0.005-1.363-0.04-2.73-0.063-4.096c-2.256,2.045-5.447,2.858-8.475,1.987
	c-2.378-0.684-4.828-1.263-7.358-1.76c-3.987-0.722-8.358-0.522-12.538,0.817c-2.131,0.608-4.14,1.584-6.146,2.678
	c-1.922,1.189-3.857,2.494-5.523,4.116c-0.826,0.782-1.711,1.653-2.383,2.442c-0.646,0.772-1.256,1.567-1.828,2.384
	c-1.138,1.641-2.15,3.34-2.944,5.153c-1.619,3.594-2.562,7.439-2.705,11.362c-0.106,2.365-0.175,4.74-0.221,7.105
	c-0.08,4.034-3.047,7.411-7.037,8.012c-2.341,0.353-4.685,0.729-7.024,1.138c-7.721,1.303-14.846,5.722-19.698,12.278
	c-4.861,6.557-7.072,14.657-6.066,22.445c0.276,2.343,0.63,4.71,0.966,7.037l0.01,0.069c0.575,3.978-1.79,7.773-5.597,9.059
	c-2.237,0.755-4.474,1.539-6.726,2.343c-7.345,2.67-13.617,8.318-17.213,15.711c-3.613,7.386-4.235,15.838-1.756,23.294
	c0.733,2.254,1.515,4.5,2.314,6.722l0.042,0.118c1.325,3.748-0.199,7.908-3.63,9.913l-0.082,0.048
	c-2.052,1.185-4.07,2.413-6.095,3.667c-6.682,4.124-11.637,11.045-13.581,19.088c-0.511,2.004-0.755,4.054-0.874,6.077l-0.032,0.759
	L0,326.586c-0.001,0.566,0.009,1.127,0.031,1.685c0.045,1.117,0.123,2.215,0.319,3.306c0.644,4.34,2.369,8.354,4.773,11.624
	c1.667,2.207,3.382,4.291,5.169,6.246c2.427,2.656,2.813,6.622,0.95,9.699c-1.371,2.263-2.651,4.637-3.796,7.108
	c-0.915,1.856-1.477,3.818-1.933,5.906c-0.353,2.057-0.584,4.245-0.445,6.425c0.17,4.396,1.414,8.906,3.629,13.003
	c2.215,4.101,5.264,7.648,8.85,10.21c3.565,2.581,7.556,4.251,11.618,4.811c2.706,0.401,5.395,0.645,8.044,0.748
	c2.851,0.109,5.368,1.723,6.734,4.123c1.502-0.797,2.937-1.715,4.275-2.762c1.892-1.481,3.76-2.966,5.602-4.467
	c3.113-2.537,7.569-2.492,10.628,0.108c1.81,1.538,3.647,3.061,5.508,4.581c6.081,4.957,14.18,7.361,22.359,6.633
	c8.186-0.735,15.734-4.529,20.841-10.507c1.556-1.776,3.071-3.639,4.569-5.448c0.015-0.019,0.03-0.036,0.045-0.055
	c2.558-3.087,6.916-3.932,10.426-1.996c2.083,1.149,4.189,2.276,6.32,3.396c6.95,3.638,15.383,4.374,23.261,2.005
	c1.969-0.594,3.87-1.344,5.655-2.302c0.894-0.471,1.765-0.978,2.607-1.52c0.423-0.272,0.83-0.546,1.247-0.84
	c0.456-0.32,0.903-0.649,1.339-0.985c3.518-2.623,6.22-6.075,7.956-9.733c1.146-2.521,2.154-5.03,3.016-7.538
	c1.169-3.4,4.461-5.638,8.052-5.477c2.648,0.118,5.352,0.103,8.076-0.081c2.056-0.104,4.067-0.537,6.11-1.152
	c1.98-0.678,4.002-1.538,5.852-2.707c1.903-1.123,3.638-2.542,5.3-4.105c1.596-1.612,3.105-3.381,4.351-5.35
	c2.519-3.924,4.161-8.3,4.677-12.673c0.528-4.371,0.085-8.662-1.387-12.492c-0.835-2.305-1.861-4.562-2.861-6.704
	c-0.095-0.188-0.19-0.374-0.283-0.559c-1.653-3.259-1-7.238,1.679-9.723c1.942-1.801,3.82-3.735,5.635-5.798
	c2.738-3.062,4.64-6.919,5.722-11.2c0.999-4.271,1.066-8.947,0.109-13.501C228.881,280.424,224.083,273.386,217.495,269.102z"/>
<path style="fill:#47423F;" d="M180.438,461.821c-32.158,0-63.845-4.692-94.189-13.949c-3.25-0.992-5.472-3.992-5.472-7.391V326.292
	c0-4.268,3.458-7.726,7.726-7.726h144.225c4.268,0,7.726,3.458,7.726,7.726v123.485c0,3.778-2.732,7.002-6.459,7.621
	c-17.645,2.934-35.661,4.422-53.548,4.422C180.448,461.821,180.44,461.821,180.438,461.821z"/>
<path style="fill:#5B5751;" d="M187.655,374.576c2.648,0.118,5.352,0.104,8.076-0.081c2.056-0.104,4.067-0.537,6.11-1.152
	c1.98-0.677,4.002-1.538,5.852-2.707c1.903-1.124,3.638-2.544,5.3-4.105c1.596-1.611,3.105-3.38,4.351-5.349
	c2.519-3.925,4.161-8.3,4.677-12.674c0.528-4.37,0.086-8.661-1.387-12.492c-0.835-2.305-1.861-4.562-2.861-6.704
	c-0.095-0.188-0.19-0.374-0.283-0.56c-1.653-3.259-1-7.237,1.679-9.723c0.16-0.148,0.312-0.31,0.471-0.459H88.504
	c-4.268,0-7.726,3.458-7.726,7.726v88.211c3.685,1.036,7.603,1.42,11.54,1.07c8.186-0.736,15.734-4.529,20.841-10.507
	c1.556-1.776,3.071-3.638,4.569-5.447c0.015-0.019,0.03-0.036,0.045-0.055c2.558-3.087,6.916-3.932,10.426-1.996
	c2.083,1.149,4.189,2.277,6.32,3.398c6.95,3.638,15.383,4.373,23.261,2.004c1.969-0.593,3.87-1.344,5.655-2.301
	c0.894-0.471,1.765-0.978,2.607-1.52c0.423-0.273,0.83-0.546,1.247-0.84c0.456-0.321,0.903-0.649,1.339-0.985
	c3.518-2.623,6.22-6.075,7.956-9.733c1.146-2.52,2.154-5.03,3.016-7.538C180.771,376.654,184.064,374.415,187.655,374.576z"/>
<path style="fill:#E2C35A;" d="M307.447,315.003c6.798-2.62,6.833-6.884,0.08-9.503c-6.754-2.62-17.778-2.621-24.576,0
	c-6.797,2.621-6.833,6.884-0.079,9.504C289.625,317.622,300.649,317.623,307.447,315.003z"/>
<g>
	<path style="fill:#EBD37A;" d="M99.121,190.915c-2.861,6.185-2.861,16.283,0,22.509c2.861,6.225,7.515,6.258,10.376,0.073
		c2.861-6.185,2.861-16.283,0-22.509C106.637,184.762,101.982,184.729,99.121,190.915z"/>
	<path style="fill:#EBD37A;" d="M156.776,294.221c-6.754-2.62-17.778-2.621-24.576,0c-6.797,2.62-6.833,6.884-0.079,9.504
		c6.753,2.62,17.778,2.62,24.575,0C163.493,301.103,163.529,296.841,156.776,294.221z"/>
	<path style="fill:#EBD37A;" d="M57.281,313.1c-6.83-2.55-10.146,0.442-7.394,6.668c2.753,6.226,10.548,13.367,17.377,15.916
		s10.146-0.442,7.394-6.668C71.906,322.79,64.111,315.649,57.281,313.1z"/>
	<path style="fill:#EBD37A;" d="M129.394,240.987c-6.83-2.55-10.146,0.442-7.394,6.668c2.753,6.226,10.548,13.367,17.377,15.916
		c6.829,2.55,10.146-0.442,7.394-6.668C144.018,250.677,136.224,243.536,129.394,240.987z"/>
	<path style="fill:#EBD37A;" d="M190.912,218.102c-3.027-6.632-7.487-6.862-9.943-0.513c-2.456,6.349-1.993,16.91,1.033,23.542
		c3.027,6.632,7.487,6.862,9.943,0.513C194.402,235.294,193.939,224.733,190.912,218.102z"/>
	<path style="fill:#EBD37A;" d="M171.235,174.023c2.55-6.83-0.442-10.146-6.668-7.394c-6.226,2.753-13.367,10.548-15.916,17.377
		c-2.55,6.829,0.442,10.146,6.668,7.394"/>
	<path style="fill:#EBD37A;" d="M136.122,167.846c6.632-3.027,6.862-7.487,0.513-9.943c-6.349-2.457-16.91-1.993-23.543,1.033
		c-6.632,3.027-6.862,7.487-0.512,9.943C118.929,171.337,129.49,170.873,136.122,167.846z"/>
	<path style="fill:#EBD37A;" d="M46.749,354.227c-6.798,2.521-14.595,9.661-17.378,15.916c-2.784,6.255,0.483,9.293,7.281,6.771
		c6.798-2.521,14.594-9.661,17.377-15.916C56.814,354.743,53.547,351.706,46.749,354.227z"/>
	<path style="fill:#EBD37A;" d="M63.04,267.932c-6.798,2.521-14.595,9.661-17.378,15.916c-2.784,6.255,0.483,9.293,7.281,6.771
		c6.798-2.521,14.594-9.661,17.377-15.916C73.104,268.448,69.838,265.411,63.04,267.932z"/>
</g>
<g>
	<path style="fill:#E2C35A;" d="M307.527,377.382c-6.753-2.62-17.778-2.621-24.575,0c-6.797,2.62-6.833,6.884-0.08,9.503
		c6.753,2.62,17.778,2.621,24.576,0C314.244,384.266,314.28,380.003,307.527,377.382z"/>
	<path style="fill:#E2C35A;" d="M256.018,222.108c-6.753-2.62-17.778-2.621-24.575,0c-6.797,2.621-6.833,6.884-0.08,9.504
		c6.754,2.62,17.778,2.62,24.576,0C262.735,228.991,262.771,224.728,256.018,222.108z"/>
	<path style="fill:#E2C35A;" d="M217.53,201.761c6.83,2.55,10.146-0.442,7.394-6.669c-2.753-6.226-10.548-13.367-17.377-15.916
		c-6.829-2.55-10.146,0.442-7.394,6.668C202.906,192.071,210.701,199.211,217.53,201.761z"/>
	<path style="fill:#E2C35A;" d="M250.804,364.091c-2.55,6.829,0.442,10.146,6.668,7.394c6.226-2.753,13.368-10.548,15.917-17.377
		s-0.442-10.146-6.669-7.394C260.494,349.466,253.354,357.261,250.804,364.091z"/>
	<path style="fill:#E2C35A;" d="M223.445,279.95c-6.226,2.753-13.367,10.548-15.916,17.377c-2.55,6.83,0.442,10.146,6.669,7.394
		c6.226-2.753,13.367-10.548,15.916-17.377C232.663,280.514,229.672,277.197,223.445,279.95z"/>
</g>
<g>
</g>
<g>
</g>
<g>
</g>
<g>
</g>
<g>
</g>
<g>
</g>
<g>
</g>
<g>
</g>
<g>
</g>
<g>
</g>
<g>
</g>
<g>
</g>
<g>
</g>
<g>
</g>
<g>
</g>
</svg>
