<?xml version="1.0" encoding="iso-8859-1"?>
<!-- Generator: Adobe Illustrator 19.0.0, SVG Export Plug-In . SVG Version: 6.00 Build 0)  -->
<svg xmlns="http://www.w3.org/2000/svg" xmlns:xlink="http://www.w3.org/1999/xlink" version="1.1" id="Capa_1" x="0px" y="0px" viewBox="0 0 512 512" style="enable-background:new 0 0 512 512;" xml:space="preserve" width="512px" height="512px">
<g>
	<g>
		<path d="M120.403,309.026H79.368c-5.522,0-10,4.477-10,10c0,5.523,4.478,10,10,10h41.035c5.522,0,10-4.477,10-10    C130.403,313.503,125.926,309.026,120.403,309.026z" fill="#FFFFFF"/>
	</g>
</g>
<g>
	<g>
		<path d="M149.396,309.029h-0.287c-5.523,0-10,4.477-10,10c0,5.523,4.477,10,10,10h0.287c5.523,0,10-4.477,10-10    C159.396,313.505,154.919,309.029,149.396,309.029z" fill="#FFFFFF"/>
	</g>
</g>
<g>
	<g>
		<path d="M161.481,234.443h-0.287c-5.523,0-10,4.477-10,10s4.477,10,10,10h0.287c5.522,0,10-4.477,10-10    S167.004,234.443,161.481,234.443z" fill="#FFFFFF"/>
	</g>
</g>
<g>
	<g>
		<path d="M305.98,235.443h-0.287c-5.522,0-10,4.477-10,10s4.478,10,10,10h0.287c5.522,0,10-4.477,10-10    S311.503,235.443,305.98,235.443z" fill="#FFFFFF"/>
	</g>
</g>
<g>
	<g>
		<path d="M245.843,206.304h-0.287c-5.523,0-10,4.477-10,10s4.477,10,10,10h0.287c5.523,0,10-4.477,10-10    S251.365,206.304,245.843,206.304z" fill="#FFFFFF"/>
	</g>
</g>
<g>
	<g>
		<path d="M485.687,25.024c-0.667-2.607-2.357-4.836-4.688-6.182l-30.311-17.5c-4.785-2.763-10.9-1.122-13.66,3.66L333.975,183.496    c-12.047-7.511-24.658-13.399-37.925-17.705l38.623-144.14c1.43-5.335-1.736-10.818-7.071-12.248l-33.808-9.059    c-2.599-0.697-5.37-0.316-7.685,1.056c-2.316,1.372-3.981,3.62-4.618,6.235L245.066,157.08c-2.549-0.09-5.118-0.136-7.712-0.136    c-42.779,0-79.365,12.146-111.851,37.132c-29.611,22.776-51.605,53.339-67.768,78.565H36.001c-5.522,0-10,4.477-10,10    c0,37.12,9.764,73.634,28.235,105.596c16.96,29.346,40.891,54.344,69.43,72.594V502c0,5.523,4.478,10,10,10h207.375    c5.522,0,10-4.477,10-10v-41.169c28.54-18.25,52.471-43.249,69.43-72.594c18.472-31.962,28.235-68.476,28.235-105.596    c0-5.523-4.478-10-10-10H416.97c-11.438-17.854-25.81-38.359-43.725-56.908L484.543,32.698    C485.94,30.398,486.354,27.632,485.687,25.024z M298.499,22.31l14.268,3.823l-36.066,134.596    c-3.771-0.761-7.591-1.407-11.466-1.938L298.499,22.31z M411.5,292.642h16.955c-3.237,63.753-37.328,120.816-92.586,154.07    c-3.19,1.92-4.989,5.408-4.827,9.01v36.28H143.667v-36.132c0.217-3.655-1.593-7.212-4.827-9.158    c-55.259-33.254-89.349-90.317-92.585-154.07h16.975H411.48H411.5z M393.039,272.642H81.669    c34.747-51.452,79.086-95.698,155.685-95.698c5.702,0,11.221,0.25,16.575,0.726c0.339,0.029,0.68,0.058,1.019,0.089    c0.947,0.09,1.888,0.187,2.824,0.291c0.149,0.017,0.299,0.032,0.448,0.049C322.244,185.371,361.575,226.051,393.039,272.642z     M358.423,201.616c-0.784-0.679-1.575-1.333-2.363-1.996c-0.49-0.413-0.974-0.831-1.468-1.24    c-1.387-1.143-2.779-2.266-4.178-3.359l98.934-171.359l12.791,7.385L358.423,201.616z" fill="#FFFFFF"/>
	</g>
</g>
<g>
</g>
<g>
</g>
<g>
</g>
<g>
</g>
<g>
</g>
<g>
</g>
<g>
</g>
<g>
</g>
<g>
</g>
<g>
</g>
<g>
</g>
<g>
</g>
<g>
</g>
<g>
</g>
<g>
</g>
</svg>
