<?xml version="1.0" encoding="iso-8859-1"?>
<!-- Generator: Adobe Illustrator 19.0.0, SVG Export Plug-In . SVG Version: 6.00 Build 0)  -->
<svg xmlns="http://www.w3.org/2000/svg" xmlns:xlink="http://www.w3.org/1999/xlink" version="1.1" id="Layer_1" x="0px" y="0px" viewBox="0 0 512 512" style="enable-background:new 0 0 512 512;" xml:space="preserve" width="512" height="512">
<g id="XMLID_788_">
	<g id="XMLID_741_">
		<path id="XMLID_833_" style="fill:#EFCDB1;" d="M430.361,392.426c-1.652,0.099-3.324,0.146-5.008,0.151l-173.775,0.476    c-1.683,0.005-3.346-0.033-4.998-0.123c-63.855-3.318-102.882-73.328-70.482-129.803l72.789-126.88l13.687-23.848    c33.227-57.929,116.705-58.157,150.259-0.411l87.299,150.253C532.83,318.536,494.186,388.758,430.361,392.426z"/>
		<path id="XMLID_830_" style="fill:#D8AD8F;" d="M356.384,392.765l-104.806,0.287c-1.683,0.005-3.346-0.033-4.998-0.123    c-63.855-3.318-102.882-73.328-70.482-129.803l72.789-126.88c4.928,5.405,9.332,11.401,13.128,17.935l87.299,150.264    C365.171,331.737,367.574,363.926,356.384,392.765z"/>
		<path id="XMLID_792_" style="fill:#D8AD8F;" d="M430.357,392.428c-1.652,0.096-3.322,0.147-5.002,0.151l-18.358,0.05    c1.68-0.005,3.35-0.055,5.002-0.152c63.83-3.672,102.474-73.896,69.772-130.184l-87.3-150.261    c-15.014-25.853-40.029-40.076-66.068-42.713c32.117-3.447,65.889,10.761,84.426,42.663l87.3,150.261    C532.832,318.531,494.188,388.756,430.357,392.428z"/>
		<path id="XMLID_789_" style="fill:#D8AD8F;" d="M429.934,237.634l0.424,154.794c-1.652,0.096-3.322,0.147-5.002,0.151    l-173.776,0.476c-1.68,0.005-3.35-0.037-5.003-0.124l-0.424-154.794c-0.016-5.994,4.835-10.872,10.838-10.889l162.046-0.443    C425.039,226.788,429.917,231.64,429.934,237.634z"/>
		<path id="XMLID_876_" style="fill:#75AC35;" d="M416.196,249.082l0.393,143.518l-156.246,0.428l-0.416-152.016l147.748-0.404    C412.368,240.595,416.183,244.389,416.196,249.082z"/>
		<path id="XMLID_874_" style="fill:#60931D;" d="M356.384,392.765l-96.041,0.263l-0.416-152.016l52.45-0.144l36.937,63.576    C365.171,331.737,367.574,363.926,356.384,392.765z"/>
		<path id="XMLID_782_" style="fill:#60931D;" d="M375.801,283.015c-4.268,0.012-7.738-3.439-7.75-7.707l-0.005-1.8    c-0.012-4.269,3.439-7.738,7.707-7.75c4.268-0.012,7.738,3.439,7.75,7.707l0.005,1.8    C383.52,279.534,380.069,283.003,375.801,283.015z"/>
		<path id="XMLID_781_" style="fill:#60931D;" d="M354.74,301.746c-4.268,0.012-7.738-3.439-7.75-7.707l-0.005-1.8    c-0.012-4.269,3.439-7.738,7.707-7.75c4.268-0.012,7.738,3.439,7.75,7.707l0.005,1.8    C362.459,298.265,359.009,301.734,354.74,301.746z"/>
		<path id="XMLID_777_" style="fill:#D8AD8F;" d="M381.892,160.763c-4.268,0.012-7.738-3.439-7.75-7.707l-0.005-1.8    c-0.012-4.269,3.439-7.738,7.707-7.75c4.268-0.012,7.738,3.439,7.75,7.707l0.005,1.8    C389.611,157.282,386.16,160.751,381.892,160.763z"/>
		<path id="XMLID_772_" style="fill:#D8AD8F;" d="M457.525,294.146c-4.268,0.012-7.738-3.439-7.75-7.707l-0.005-1.8    c-0.012-4.269,3.439-7.738,7.707-7.75c4.268-0.012,7.738,3.439,7.75,7.707l0.005,1.8    C465.244,290.666,461.793,294.135,457.525,294.146z"/>
		<path id="XMLID_745_" style="fill:#D8AD8F;" d="M354.302,141.562c-4.268,0.012-7.738-3.439-7.75-7.707l-0.005-1.799    c-0.012-4.269,3.439-7.738,7.707-7.75c4.268-0.012,7.738,3.439,7.75,7.707l0.005,1.799    C362.021,138.081,358.57,141.551,354.302,141.562z"/>
		<path id="XMLID_743_" style="fill:#60931D;" d="M396.194,355.77c-4.268,0.012-7.738-3.439-7.75-7.707l-0.005-1.8    c-0.012-4.269,3.439-7.738,7.707-7.75s7.738,3.439,7.75,7.707l0.005,1.8C403.913,352.29,400.462,355.759,396.194,355.77z"/>
	</g>
	<g id="XMLID_62_">
		<path id="XMLID_742_" style="fill:#F9E8D4;" d="M265.899,442.559c-1.652,0.096-3.322,0.147-5.002,0.151L87.12,443.186    c-1.68,0.005-3.35-0.037-5.003-0.124c-63.849-3.322-102.877-73.334-70.483-129.801l86.476-150.736    c33.235-57.928,116.708-58.156,150.26-0.411l87.3,150.261C368.373,368.663,329.729,438.887,265.899,442.559z"/>
		<path id="XMLID_786_" style="fill:#EFCDB1;" d="M265.899,442.559c-1.652,0.096-3.322,0.147-5.002,0.151l-18.358,0.05    c1.68-0.005,3.35-0.055,5.002-0.152c63.83-3.672,102.474-73.896,69.772-130.184l-87.3-150.261    c-15.014-25.853-40.029-40.076-66.068-42.713c32.117-3.447,65.889,10.761,84.426,42.663l87.3,150.261    C368.373,368.663,329.729,438.887,265.899,442.559z"/>
		<path id="XMLID_740_" style="fill:#EFCDB1;" d="M265.475,287.765l0.424,154.794c-1.652,0.096-3.322,0.147-5.002,0.151    L87.12,443.186c-1.68,0.005-3.35-0.037-5.003-0.124l-0.424-154.794c-0.016-5.994,4.835-10.872,10.838-10.889l162.046-0.443    C260.58,276.919,265.459,281.771,265.475,287.765z"/>
		<path id="XMLID_708_" style="fill:#75AC35;" d="M251.738,299.21l0.393,143.524l-156.244,0.428l-0.393-143.524    c-0.013-4.693,3.781-8.509,8.475-8.521l139.248-0.381C247.91,290.723,251.725,294.517,251.738,299.21z"/>
		<path id="XMLID_64_" style="fill:#60931D;" d="M121.784,335.18c-4.268,0.012-7.738-3.439-7.75-7.707l-0.005-1.8    c-0.012-4.269,3.439-7.738,7.707-7.75c4.268-0.012,7.738,3.439,7.75,7.707l0.005,1.8    C129.503,331.699,126.052,335.169,121.784,335.18z"/>
		<path id="XMLID_104_" style="fill:#60931D;" d="M211.342,333.146c-4.268,0.012-7.738-3.439-7.75-7.707l-0.005-1.8    c-0.012-4.269,3.439-7.738,7.707-7.75c4.268-0.012,7.738,3.439,7.75,7.707l0.005,1.8    C219.061,329.665,215.61,333.134,211.342,333.146z"/>
		<path id="XMLID_764_" style="fill:#60931D;" d="M190.281,351.876c-4.268,0.012-7.738-3.439-7.75-7.707l-0.005-1.799    c-0.012-4.269,3.439-7.738,7.707-7.75c4.268-0.012,7.738,3.439,7.75,7.707l0.005,1.799    C198,348.395,194.55,351.864,190.281,351.876z"/>
		<path id="XMLID_767_" style="fill:#EFCDB1;" d="M217.433,210.894c-4.268,0.012-7.738-3.439-7.75-7.707l-0.005-1.8    c-0.012-4.269,3.439-7.738,7.707-7.75c4.268-0.012,7.738,3.439,7.75,7.707l0.005,1.8    C225.152,207.413,221.701,210.882,217.433,210.894z"/>
		<path id="XMLID_766_" style="fill:#EFCDB1;" d="M293.066,344.277c-4.268,0.012-7.738-3.439-7.75-7.707l-0.005-1.799    c-0.012-4.269,3.439-7.738,7.707-7.75c4.268-0.012,7.738,3.439,7.75,7.707l0.005,1.799    C300.785,340.796,297.334,344.265,293.066,344.277z"/>
		<path id="XMLID_765_" style="fill:#EFCDB1;" d="M37.045,371.407c-4.268,0.012-7.738-3.439-7.75-7.707l-0.005-1.8    c-0.012-4.269,3.439-7.738,7.707-7.75s7.738,3.439,7.75,7.707l0.005,1.8C44.764,367.926,41.313,371.396,37.045,371.407z"/>
		<path id="XMLID_763_" style="fill:#EFCDB1;" d="M121.55,249.744c-4.268,0.012-7.738-3.439-7.75-7.707l-0.005-1.8    c-0.012-4.269,3.439-7.738,7.707-7.75c4.268-0.012,7.738,3.439,7.75,7.707l0.005,1.8    C129.269,246.263,125.818,249.732,121.55,249.744z"/>
		<path id="XMLID_109_" style="fill:#EFCDB1;" d="M189.843,191.694c-4.268,0.012-7.738-3.439-7.75-7.707l-0.005-1.8    c-0.012-4.269,3.439-7.738,7.707-7.75c4.268-0.012,7.738,3.439,7.75,7.707l0.005,1.8    C197.562,188.213,194.111,191.682,189.843,191.694z"/>
		<path id="XMLID_753_" style="fill:#60931D;" d="M231.735,405.902c-4.268,0.012-7.738-3.439-7.75-7.707l-0.005-1.8    c-0.012-4.269,3.439-7.738,7.707-7.75c4.268-0.012,7.738,3.439,7.75,7.707l0.005,1.8    C239.454,402.421,236.003,405.89,231.735,405.902z"/>
		<path id="XMLID_565_" style="fill:#60931D;" d="M152.719,378.062c-4.268,0.012-7.738-3.439-7.75-7.707l-0.005-1.799    c-0.012-4.269,3.439-7.738,7.707-7.75c4.268-0.012,7.738,3.439,7.75,7.707l0.005,1.799    C160.438,374.581,156.987,378.05,152.719,378.062z"/>
	</g>
</g>















</svg>
